<svg width="414" height="444" viewBox="0 0 414 444" fill="none" xmlns="http://www.w3.org/2000/svg">
<path opacity="0.7" d="M26.9334 138.09C26.9334 138.09 -0.946589 210.09 38.2334 282.59C77.4134 355.09 158.113 393.39 222.703 426.14C287.293 458.89 354.363 442.94 386.233 389.3C418.103 335.66 374.393 297.37 374.333 220.88C374.273 144.39 385.783 124.14 344.333 59.5196C302.883 -5.10042 201.273 -19.4104 124.433 28.5196C47.5934 76.4496 26.9334 138.09 26.9334 138.09Z" fill="white"/>
<path d="M54.8619 58.7397L55.4219 58.2297C107.002 11.7997 175.482 9.69965 225.382 59.6897C251.382 85.7397 297.572 80.7597 330.612 90.1797C444.532 122.67 424.832 277.23 368.562 352C317.782 419.42 207.752 434.66 133.832 401.48C68.8319 372.33 23.1319 307.21 6.83188 239.11C5.19855 232.283 3.86522 225.393 2.83188 218.44C-5.70812 160.42 10.7419 98.8596 54.8619 58.7397Z" fill="#45474B"/>
<path opacity="0.7" d="M54.8619 58.7397L55.4219 58.2297C107.002 11.7997 175.482 9.69965 225.382 59.6897C251.382 85.7397 297.572 80.7597 330.612 90.1797C444.532 122.67 424.832 277.23 368.562 352C317.782 419.42 207.752 434.66 133.832 401.48C68.8319 372.33 23.1319 307.21 6.83188 239.11C5.19855 232.283 3.86522 225.393 2.83188 218.44C-5.70812 160.42 10.7419 98.8596 54.8619 58.7397Z" fill="white"/>
<path d="M404.849 153.41H298.109V141.29H389.849" stroke="#263238" stroke-linecap="round" stroke-linejoin="round"/>
<path d="M343.98 159.6V153.41" stroke="#263238" stroke-linecap="round" stroke-linejoin="round"/>
<path d="M335.391 154.04L338.831 176.79H343.981" stroke="#263238" stroke-linecap="round" stroke-linejoin="round"/>
<path d="M320.639 96.2804V141.29H311.059V82.9404H320.639V85.4704" stroke="#263238" stroke-linecap="round" stroke-linejoin="round"/>
<path d="M320.641 89.7705V91.6105" stroke="#263238" stroke-linecap="round" stroke-linejoin="round"/>
<path d="M343.981 98.4804V82.9404H320.641" stroke="#263238" stroke-linecap="round" stroke-linejoin="round"/>
<path d="M339.56 141.29H329.98V98.4805H339.56" stroke="#263238" stroke-linecap="round" stroke-linejoin="round"/>
<path d="M362.899 130.29V98.4805H339.559" stroke="#263238" stroke-linecap="round" stroke-linejoin="round"/>
<path d="M339.559 115.45V141.29" stroke="#263238" stroke-linecap="round" stroke-linejoin="round"/>
<path d="M339.559 108.051V113.041" stroke="#263238" stroke-linecap="round" stroke-linejoin="round"/>
<path d="M339.559 100.99V103.41" stroke="#263238" stroke-linecap="round" stroke-linejoin="round"/>
<path d="M311.059 97.6602H320.639" stroke="#263238" stroke-linecap="round" stroke-linejoin="round"/>
<path d="M312.918 108.051H320.638" stroke="#263238" stroke-linecap="round" stroke-linejoin="round"/>
<path d="M329.98 130.62H336.77" stroke="#263238" stroke-linecap="round" stroke-linejoin="round"/>
<path d="M329.98 134.61H339.56" stroke="#263238" stroke-linecap="round" stroke-linejoin="round"/>
<path d="M343.98 109.921H359.5V116.161" stroke="#263238" stroke-linecap="round" stroke-linejoin="round"/>
<path d="M356.39 116.16H343.98V113.73" stroke="#263238" stroke-linecap="round" stroke-linejoin="round"/>
<path d="M342.93 169.11L343.98 176.79" stroke="#263238" stroke-linecap="round" stroke-linejoin="round"/>
<path d="M342 162.07C342.21 163.57 342.41 165.07 342.61 166.55" stroke="#263238" stroke-linecap="round" stroke-linejoin="round"/>
<path d="M340.789 153.41C340.929 154.41 341.079 155.49 341.219 156.53" stroke="#263238" stroke-linecap="round" stroke-linejoin="round"/>
<path d="M390.49 141.291H353.37C351.957 141.299 350.599 140.747 349.592 139.755C348.586 138.764 348.013 137.414 348 136.001C348.003 134.586 348.566 133.231 349.568 132.231C350.569 131.232 351.925 130.671 353.34 130.671H390.46" stroke="#263238" stroke-linecap="round" stroke-linejoin="round"/>
<path d="M404.49 141.291H377.37C375.957 141.299 374.599 140.747 373.592 139.755C372.586 138.764 372.013 137.414 372 136.001C372.003 134.586 372.566 133.231 373.568 132.231C374.569 131.232 375.925 130.671 377.34 130.671H396.46" stroke="#263238" stroke-linecap="round" stroke-linejoin="round"/>
<path d="M377.289 133.53H394.429" stroke="#263238" stroke-linecap="round" stroke-linejoin="round"/>
<path d="M399.181 135.95H384.031" stroke="#263238" stroke-linecap="round" stroke-linejoin="round"/>
<path d="M379.918 138.78H394.428" stroke="#263238" stroke-linecap="round" stroke-linejoin="round"/>
<path opacity="0.3" d="M281.001 371.491L145.191 406.001C141.318 404.587 137.531 403.051 133.831 401.391C116.793 393.676 100.925 383.604 86.6914 371.471L281.001 371.491Z" fill="black" fill-opacity="0.7"/>
<path d="M160.368 330.4V333.51C160.368 333.713 160.328 333.913 160.251 334.1C160.174 334.286 160.06 334.456 159.917 334.599C159.774 334.742 159.604 334.856 159.418 334.933C159.231 335.01 159.031 335.05 158.828 335.05H98.3683C97.6569 335.05 96.955 334.886 96.317 334.571C95.679 334.256 95.122 333.799 94.689 333.234C94.2559 332.67 93.9585 332.013 93.8197 331.316C93.6808 330.618 93.7043 329.898 93.8883 329.21L100.998 302.7L110.828 265.78H141.568L142.628 282.34L144.018 303.84L145.168 321.77C145.288 323.691 146.136 325.494 147.539 326.811C148.941 328.129 150.794 328.861 152.718 328.86H158.878C159.278 328.873 159.657 329.041 159.935 329.329C160.213 329.616 160.369 330 160.368 330.4Z" fill="#45474B"/>
<mask id="mask0_2756_6950" style="mask-type:luminance" maskUnits="userSpaceOnUse" x="93" y="265" width="68" height="71">
<path d="M160.368 330.4V333.51C160.368 333.713 160.328 333.913 160.251 334.1C160.174 334.286 160.06 334.456 159.917 334.599C159.774 334.742 159.604 334.856 159.418 334.933C159.231 335.01 159.031 335.05 158.828 335.05H98.3683C97.6569 335.05 96.955 334.886 96.317 334.571C95.679 334.256 95.122 333.799 94.689 333.234C94.2559 332.67 93.9585 332.013 93.8197 331.316C93.6808 330.618 93.7043 329.898 93.8883 329.21L100.998 302.7L110.828 265.78H141.568L142.628 282.34L144.018 303.84L145.168 321.77C145.288 323.691 146.136 325.494 147.539 326.811C148.941 328.129 150.794 328.861 152.718 328.86H158.878C159.278 328.873 159.657 329.041 159.935 329.329C160.213 329.616 160.369 330 160.368 330.4Z" fill="white"/>
</mask>
<g mask="url(#mask0_2756_6950)">
<path opacity="0.3" d="M152.668 328.86H99.668L105.858 303.3L110.738 283.14L142.538 282.34L143.928 303.84L145.078 321.77C145.198 323.698 146.051 325.506 147.463 326.825C148.874 328.143 150.737 328.871 152.668 328.86Z" fill="black" fill-opacity="0.7"/>
<path opacity="0.3" d="M144 303.84C131.324 304.949 118.569 304.768 105.93 303.3C104.18 303.12 102.53 302.91 100.93 302.7L110.76 265.78H141.5L142.56 282.34L144 303.84Z" fill="black" fill-opacity="0.7"/>
</g>
<path d="M160.368 330.4V333.51C160.368 333.713 160.328 333.913 160.251 334.1C160.174 334.286 160.06 334.456 159.917 334.599C159.774 334.742 159.604 334.856 159.418 334.933C159.231 335.01 159.031 335.05 158.828 335.05H98.3683C97.6569 335.05 96.955 334.886 96.317 334.571C95.679 334.256 95.122 333.799 94.689 333.234C94.2559 332.67 93.9585 332.013 93.8197 331.316C93.6808 330.618 93.7043 329.898 93.8883 329.21L100.998 302.7L110.828 265.78H141.568L142.628 282.34L144.018 303.84L145.168 321.77C145.288 323.691 146.136 325.494 147.539 326.811C148.941 328.129 150.794 328.861 152.718 328.86H158.878C159.278 328.873 159.657 329.041 159.935 329.329C160.213 329.616 160.369 330 160.368 330.4Z" stroke="#263238" stroke-linecap="round" stroke-linejoin="round"/>
<path d="M264.25 278.67C264.25 280.476 263.56 282.214 262.319 283.527C261.079 284.84 259.383 285.628 257.58 285.73C235.45 286.99 164.42 290.89 137.83 290.89C111.24 290.89 40.2102 287 18.0902 285.73C16.2852 285.631 14.587 284.843 13.3446 283.53C12.1022 282.217 11.41 280.478 11.4102 278.67V105.82C11.4102 103.943 12.1561 102.142 13.4838 100.814C14.8116 99.4862 16.6124 98.7402 18.4902 98.7402H257.17C259.048 98.7402 260.849 99.4862 262.176 100.814C263.504 102.142 264.25 103.943 264.25 105.82V278.67Z" fill="#45474B" stroke="#263238" stroke-linecap="round" stroke-linejoin="round"/>
<path d="M267.942 278.67C267.944 280.477 267.254 282.216 266.013 283.529C264.773 284.843 263.076 285.63 261.272 285.73C239.142 286.99 168.112 290.89 141.522 290.89C114.932 290.89 43.9016 287 21.7816 285.73C19.9766 285.631 18.2784 284.843 17.036 283.53C15.7936 282.217 15.1014 280.478 15.1016 278.67V105.82C15.1016 103.943 15.8475 102.142 17.1752 100.814C18.503 99.4862 20.3038 98.7402 22.1816 98.7402H260.862C262.739 98.7402 264.54 99.4862 265.868 100.814C267.196 102.142 267.942 103.943 267.942 105.82V278.67Z" fill="#45474B" stroke="#263238" stroke-linecap="round" stroke-linejoin="round"/>
<path d="M261.281 105.061H21.7812V276.491H261.281V105.061Z" fill="#263238" stroke="#263238" stroke-linecap="round" stroke-linejoin="round"/>
<path opacity="0.2" d="M261.281 105.061H21.7812V276.491H261.281V105.061Z" fill="white"/>
<path d="M261.281 105.061H21.7812V123.951H261.281V105.061Z" fill="white" stroke="#263238" stroke-linecap="round" stroke-linejoin="round"/>
<path d="M48.0312 123.95H21.7812V276.49H48.0312V123.95Z" fill="#BFBFBF" stroke="#263238" stroke-miterlimit="10"/>
<path d="M145.57 123.95V276.49" stroke="white" stroke-linecap="round" stroke-linejoin="round"/>
<path d="M48.0195 190.84H261.27" stroke="white" stroke-linecap="round" stroke-linejoin="round"/>
<path d="M258.342 111C258.344 111.52 258.191 112.03 257.904 112.464C257.616 112.898 257.206 113.236 256.725 113.437C256.245 113.637 255.716 113.691 255.205 113.591C254.694 113.49 254.225 113.241 253.856 112.873C253.487 112.506 253.236 112.037 253.133 111.527C253.031 111.016 253.083 110.487 253.281 110.006C253.48 109.525 253.817 109.113 254.25 108.824C254.683 108.534 255.191 108.38 255.712 108.38C256.057 108.379 256.399 108.445 256.718 108.576C257.037 108.708 257.327 108.9 257.571 109.144C257.815 109.387 258.009 109.676 258.142 109.995C258.274 110.313 258.342 110.655 258.342 111Z" fill="#BFBFBF" stroke="#263238" stroke-miterlimit="10"/>
<path d="M248.228 111C248.228 111.518 248.075 112.025 247.787 112.455C247.499 112.886 247.09 113.222 246.611 113.42C246.132 113.619 245.605 113.671 245.097 113.57C244.589 113.468 244.122 113.219 243.756 112.852C243.389 112.486 243.14 112.019 243.039 111.511C242.938 111.003 242.989 110.476 243.188 109.997C243.386 109.519 243.722 109.109 244.153 108.821C244.584 108.534 245.09 108.38 245.608 108.38C246.303 108.38 246.97 108.656 247.461 109.147C247.952 109.639 248.228 110.305 248.228 111Z" fill="#BFBFBF" stroke="#263238" stroke-miterlimit="10"/>
<path d="M238.131 111C238.131 111.518 237.977 112.025 237.689 112.455C237.401 112.886 236.992 113.222 236.513 113.42C236.035 113.619 235.508 113.671 234.999 113.57C234.491 113.468 234.024 113.219 233.658 112.852C233.292 112.486 233.042 112.019 232.941 111.511C232.84 111.003 232.892 110.476 233.09 109.997C233.288 109.519 233.624 109.109 234.055 108.821C234.486 108.534 234.992 108.38 235.511 108.38C236.206 108.38 236.872 108.656 237.363 109.147C237.855 109.639 238.131 110.305 238.131 111Z" fill="#BFBFBF" stroke="#263238" stroke-miterlimit="10"/>
<path d="M43.7286 130.57H26.0586V137.7H43.7286V130.57Z" fill="white" stroke="#263238" stroke-linecap="round" stroke-linejoin="round"/>
<path d="M43.7286 139.84H26.0586V146.97H43.7286V139.84Z" fill="white" stroke="#263238" stroke-linecap="round" stroke-linejoin="round"/>
<path d="M43.7286 149.101H26.0586V156.231H43.7286V149.101Z" fill="white" stroke="#263238" stroke-linecap="round" stroke-linejoin="round"/>
<path d="M43.7286 158.37H26.0586V165.5H43.7286V158.37Z" fill="white" stroke="#263238" stroke-linecap="round" stroke-linejoin="round"/>
<path d="M43.7286 175.66H26.0586V182.79H43.7286V175.66Z" fill="white" stroke="#263238" stroke-linecap="round" stroke-linejoin="round"/>
<path d="M43.7286 184.63H26.0586V191.76H43.7286V184.63Z" fill="white" stroke="#263238" stroke-linecap="round" stroke-linejoin="round"/>
<path d="M43.7286 193.601H26.0586V200.731H43.7286V193.601Z" fill="white" stroke="#263238" stroke-linecap="round" stroke-linejoin="round"/>
<path d="M43.7286 202.561H26.0586V209.691H43.7286V202.561Z" fill="white" stroke="#263238" stroke-linecap="round" stroke-linejoin="round"/>
<path d="M43.7286 211.53H26.0586V218.66H43.7286V211.53Z" fill="white" stroke="#263238" stroke-linecap="round" stroke-linejoin="round"/>
<path d="M33.1886 228.86H26.0586V235.99H33.1886V228.86Z" fill="white" stroke="#263238" stroke-linecap="round" stroke-linejoin="round"/>
<path d="M43.7394 228.86H36.6094V235.99H43.7394V228.86Z" fill="white" stroke="#263238" stroke-linecap="round" stroke-linejoin="round"/>
<path d="M33.1886 239.49H26.0586V246.62H33.1886V239.49Z" fill="white" stroke="#263238" stroke-linecap="round" stroke-linejoin="round"/>
<path d="M43.7394 239.49H36.6094V246.62H43.7394V239.49Z" fill="white" stroke="#263238" stroke-linecap="round" stroke-linejoin="round"/>
<path d="M21.7812 170.92H48.0212" stroke="#263238" stroke-linecap="round" stroke-linejoin="round"/>
<path d="M21.7812 224.2H48.0212" stroke="#263238" stroke-linecap="round" stroke-linejoin="round"/>
<path d="M222.618 109H194.398V113.02H222.618V109Z" fill="#BFBFBF" stroke="#263238" stroke-miterlimit="10"/>
<path d="M31.6686 108.21H26.0586V113.82H31.6686V108.21Z" fill="#BFBFBF" stroke="#263238" stroke-miterlimit="10"/>
<path d="M95.5101 180.44C108.544 180.44 119.11 169.874 119.11 156.84C119.11 143.806 108.544 133.24 95.5101 133.24C82.4762 133.24 71.9102 143.806 71.9102 156.84C71.9102 169.874 82.4762 180.44 95.5101 180.44Z" fill="#45474B"/>
<path opacity="0.5" d="M89.2298 165.01C96.9011 165.01 103.12 158.792 103.12 151.12C103.12 143.449 96.9011 137.23 89.2298 137.23C81.5586 137.23 75.3398 143.449 75.3398 151.12C75.3398 158.792 81.5586 165.01 89.2298 165.01Z" fill="white"/>
<path d="M261.281 270.48H21.7812V276.49H261.281V270.48Z" fill="white" stroke="#263238" stroke-linecap="round" stroke-linejoin="round"/>
<path d="M261.27 123.95H250.57V270.48H261.27V123.95Z" fill="#BFBFBF" stroke="#263238" stroke-miterlimit="10"/>
<path d="M250.57 139.84H261.27" stroke="#263238" stroke-linecap="round" stroke-linejoin="round"/>
<path d="M250.57 172.771H261.27" stroke="#263238" stroke-linecap="round" stroke-linejoin="round"/>
<path d="M250.57 205.7H261.27" stroke="#263238" stroke-linecap="round" stroke-linejoin="round"/>
<path d="M196.889 180.44C209.923 180.44 220.489 169.874 220.489 156.84C220.489 143.806 209.923 133.24 196.889 133.24C183.855 133.24 173.289 143.806 173.289 156.84C173.289 169.874 183.855 180.44 196.889 180.44Z" stroke="white" stroke-miterlimit="10"/>
<path d="M173.281 156.84H220.491" stroke="white" stroke-miterlimit="10"/>
<path d="M196.891 133.23V180.44" stroke="white" stroke-miterlimit="10"/>
<path d="M180.191 140.15L213.581 173.53" stroke="white" stroke-miterlimit="10"/>
<path d="M213.581 140.15L180.191 173.53" stroke="white" stroke-miterlimit="10"/>
<path d="M175.09 147.78L218.68 165.9" stroke="white" stroke-miterlimit="10"/>
<path d="M205.942 135.04L187.832 178.63" stroke="white" stroke-miterlimit="10"/>
<path d="M187.879 135.021L205.889 178.661" stroke="white" stroke-miterlimit="10"/>
<path d="M218.7 147.83L175.07 165.84" stroke="white" stroke-miterlimit="10"/>
<path d="M212.295 160.476C214.319 151.96 209.056 143.415 200.54 141.391C192.023 139.366 183.478 144.63 181.454 153.146C179.43 161.662 184.693 170.207 193.209 172.232C201.726 174.256 210.271 168.993 212.295 160.476Z" stroke="white" stroke-miterlimit="10"/>
<path d="M203.923 158.483C204.844 154.592 202.436 150.691 198.545 149.77C194.654 148.849 190.753 151.256 189.832 155.147C188.911 159.038 191.318 162.939 195.209 163.86C199.1 164.782 203.001 162.374 203.923 158.483Z" stroke="white" stroke-miterlimit="10"/>
<path d="M95.5101 255.091C108.544 255.091 119.11 244.525 119.11 231.491C119.11 218.457 108.544 207.891 95.5101 207.891C82.4762 207.891 71.9102 218.457 71.9102 231.491C71.9102 244.525 82.4762 255.091 95.5101 255.091Z" stroke="white" stroke-linecap="round" stroke-linejoin="round"/>
<path d="M71.9102 231.49H119.12" stroke="white" stroke-linecap="round" stroke-linejoin="round"/>
<path d="M95.5117 207.88V255.09" stroke="white" stroke-linecap="round" stroke-linejoin="round"/>
<path d="M95.51 255.091C99.9338 255.091 103.52 244.525 103.52 231.491C103.52 218.457 99.9338 207.891 95.51 207.891C91.0862 207.891 87.5 218.457 87.5 231.491C87.5 244.525 91.0862 255.091 95.51 255.091Z" stroke="white" stroke-linecap="round" stroke-linejoin="round"/>
<path d="M95.5083 255.091C103.942 255.091 110.778 244.525 110.778 231.491C110.778 218.457 103.942 207.891 95.5083 207.891C87.0749 207.891 80.2383 218.457 80.2383 231.491C80.2383 244.525 87.0749 255.091 95.5083 255.091Z" stroke="white" stroke-linecap="round" stroke-linejoin="round"/>
<path d="M95.51 255.091C107.252 255.091 116.77 244.525 116.77 231.491C116.77 218.457 107.252 207.891 95.51 207.891C83.7684 207.891 74.25 218.457 74.25 231.491C74.25 244.525 83.7684 255.091 95.51 255.091Z" stroke="white" stroke-linecap="round" stroke-linejoin="round"/>
<path d="M74.5312 220.66H116.491" stroke="white" stroke-linecap="round" stroke-linejoin="round"/>
<path d="M82.9102 211.53H108.12" stroke="white" stroke-linecap="round" stroke-linejoin="round"/>
<path d="M74.5312 242.311H116.491" stroke="white" stroke-linecap="round" stroke-linejoin="round"/>
<path d="M82.9102 251.44H108.12" stroke="white" stroke-linecap="round" stroke-linejoin="round"/>
<path d="M196.889 255.091C209.923 255.091 220.489 244.525 220.489 231.491C220.489 218.457 209.923 207.891 196.889 207.891C183.855 207.891 173.289 218.457 173.289 231.491C173.289 244.525 183.855 255.091 196.889 255.091Z" stroke="white" stroke-miterlimit="10"/>
<path d="M196.89 255.091C201.512 255.091 205.26 244.525 205.26 231.491C205.26 218.457 201.512 207.891 196.89 207.891C192.267 207.891 188.52 218.457 188.52 231.491C188.52 244.525 192.267 255.091 196.89 255.091Z" stroke="white" stroke-miterlimit="10"/>
<path d="M196.889 239.86C209.923 239.86 220.489 236.113 220.489 231.49C220.489 226.867 209.923 223.12 196.889 223.12C183.855 223.12 173.289 226.867 173.289 231.49C173.289 236.113 183.855 239.86 196.889 239.86Z" stroke="white" stroke-miterlimit="10"/>
<path d="M189.059 239.85L205.249 223.66" stroke="white" stroke-miterlimit="10"/>
<path d="M173.281 231.49H220.491" stroke="white" stroke-miterlimit="10"/>
<path d="M196.891 207.88V255.09" stroke="white" stroke-miterlimit="10"/>
<path d="M63.8008 335.05H299.881C221.161 335.017 142.467 335 63.8008 335V335.05Z" fill="white" stroke="#263238" stroke-linecap="round" stroke-linejoin="round"/>
<path d="M19 335.05H26.2Z" fill="white"/>
<path d="M19 335.05H26.2" stroke="#263238" stroke-linecap="round" stroke-linejoin="round"/>
<path d="M86.3984 350.081H147.448V337.601L86.5384 338.401L86.3984 350.081Z" fill="#263238" stroke="#263238" stroke-linecap="round" stroke-linejoin="round"/>
<path d="M264.019 350.081H130.319L89.8191 340.241L86.5391 333.101H201.529L264.019 345.651V350.081Z" fill="#45474B" stroke="#263238" stroke-linecap="round" stroke-linejoin="round"/>
<path d="M151.799 345.651H264.019L201.529 333.101H86.5391L130.319 345.651H146.529" fill="#45474B"/>
<mask id="mask1_2756_6950" style="mask-type:luminance" maskUnits="userSpaceOnUse" x="86" y="333" width="179" height="13">
<path d="M151.799 345.651H264.019L201.529 333.101H86.5391L130.319 345.651H146.529" fill="white"/>
</mask>
<g mask="url(#mask1_2756_6950)">
<path opacity="0.3" d="M86.5391 333.101L130.319 345.651H264.019L201.529 333.101H86.5391Z" fill="black" fill-opacity="0.7"/>
</g>
<path d="M151.799 345.651H264.019L201.529 333.101H86.5391L130.319 345.651H146.529" stroke="#263238" stroke-linecap="round" stroke-linejoin="round"/>
<path d="M130.32 348.42V350.08" stroke="#263238" stroke-linecap="round" stroke-linejoin="round"/>
<path d="M91.3783 338.281C91.6607 339.361 91.8018 340.474 91.7983 341.591C91.7983 346.281 89.3783 350.081 86.3983 350.081C83.4183 350.081 80.9883 346.281 80.9883 341.591C80.9883 336.901 83.4083 333.101 86.3983 333.101C88.0483 333.101 89.5183 334.261 90.5183 336.101" fill="#45474B"/>
<path d="M91.3783 338.281C91.6607 339.361 91.8018 340.474 91.7983 341.591C91.7983 346.281 89.3783 350.081 86.3983 350.081C83.4183 350.081 80.9883 346.281 80.9883 341.591C80.9883 336.901 83.4083 333.101 86.3983 333.101C88.0483 333.101 89.5183 334.261 90.5183 336.101" stroke="#263238" stroke-linecap="round" stroke-linejoin="round"/>
<path d="M63.4414 359.53C140.001 360 218.001 360 295.441 359.53Z" fill="white"/>
<path d="M63.4414 359.53C140.001 360 218.001 360 295.441 359.53" stroke="#263238" stroke-linecap="round" stroke-linejoin="round"/>
<path d="M44.8789 359.53C48.6443 360 52.4535 360 56.2189 359.53Z" fill="white"/>
<path d="M44.8789 359.53C48.6443 360 52.4535 360 56.2189 359.53" stroke="#263238" stroke-linecap="round" stroke-linejoin="round"/>
<path d="M156.191 371.491C202.001 371.001 247.001 371.001 292.771 371.491Z" fill="white"/>
<path d="M156.191 371.491C202.001 371.001 247.001 371.001 292.771 371.491" stroke="#263238" stroke-linecap="round" stroke-linejoin="round"/>
<path d="M68.5898 371.491C92.9998 371.001 117 371.001 140.72 371.491Z" fill="white"/>
<path d="M68.5898 371.491C92.9998 371.001 117 371.001 140.72 371.491" stroke="#263238" stroke-linecap="round" stroke-linejoin="round"/>
<path d="M265.109 241.05C261.064 242.014 256.885 242.284 252.749 241.85L251.319 241.66C246.069 240.87 245.939 235.37 242.029 214.3C240.909 208.3 244.939 200.45 242.609 191.42C242.119 189.51 245.239 175.2 249.519 170.57C263.449 155.51 295.459 158.34 300.859 178.57C308.779 208.14 288.659 235.53 265.109 241.05Z" fill="white" stroke="#263238" stroke-linecap="round" stroke-linejoin="round"/>
<path d="M257.372 230.26C257.062 233.47 248.772 239.53 251.322 241.66" stroke="#263238" stroke-linecap="round" stroke-linejoin="round"/>
<path d="M265.11 241.05C261.065 242.014 256.886 242.285 252.75 241.85C256.068 240.52 259.049 238.471 261.48 235.85L265.11 241.05Z" fill="#263238"/>
<path d="M112.771 330.75C112.488 332.169 112.488 333.631 112.771 335.05C112.844 335.345 113.014 335.607 113.253 335.794C113.492 335.981 113.787 336.083 114.091 336.083C114.394 336.083 114.689 335.981 114.929 335.794C115.168 335.607 115.338 335.345 115.411 335.05C115.96 333.546 116.667 332.105 117.521 330.75" fill="white"/>
<path d="M112.771 330.75C112.488 332.169 112.488 333.631 112.771 335.05C112.844 335.345 113.014 335.607 113.253 335.794C113.492 335.981 113.787 336.083 114.091 336.083C114.394 336.083 114.689 335.981 114.929 335.794C115.168 335.607 115.338 335.345 115.411 335.05C115.96 333.546 116.667 332.105 117.521 330.75" stroke="#263238" stroke-linecap="round" stroke-linejoin="round"/>
<path d="M196.891 334.46C196.891 334.46 150.721 323.83 147.161 324.18C143.601 324.53 127.451 311.32 125.291 311.47C123.131 311.62 115.001 317.83 115.001 317.83L105.721 329L103.121 335.51C103.121 335.51 104.451 338.84 108.461 334.11L115.031 330.72C115.031 330.72 126.651 341.4 138.461 339.62C138.461 339.62 187.821 367.96 197.161 366.98C206.501 366 238.071 334.11 238.071 334.11L196.891 334.46Z" fill="white" stroke="#263238" stroke-linecap="round" stroke-linejoin="round"/>
<path d="M260.551 237.9C263.411 239.9 266.841 248.18 263.851 257.36L301.391 254.49C301.391 254.49 291.741 239.1 289.441 225.25C287.141 211.4 269.811 221.56 269.811 221.56" fill="white"/>
<path d="M260.551 237.9C263.411 239.9 266.841 248.18 263.851 257.36L301.391 254.49C301.391 254.49 291.741 239.1 289.441 225.25C287.141 211.4 269.811 221.56 269.811 221.56" stroke="#263238" stroke-linecap="round" stroke-linejoin="round"/>
<path d="M309.432 186.1C305.862 164.72 291.432 157.22 276.932 157.78L271.252 157.03C249.252 154.12 238.642 163.52 236.882 172.39C235.602 178.79 238.362 187.69 250.882 191.87C249.973 190.613 249.327 189.186 248.983 187.674C248.639 186.162 248.605 184.596 248.882 183.07C249.524 184.808 250.328 186.482 251.282 188.07C255.472 195.15 256.212 198.6 256.662 201.18L257.792 202.29C258.342 199.29 259.792 195.29 263.472 198.22C270.132 203.57 267.092 216.98 264.242 221.11C264.242 221.11 270.302 235.53 289.672 232.5C289.662 232.53 313.002 207.48 309.432 186.1Z" fill="#263238"/>
<path d="M259.881 204.089C259.881 204.089 258.191 194.879 261.081 195.399C263.971 195.919 265.791 205.569 264.701 211.159C263.611 216.749 261.091 221.999 259.071 220.159C257.051 218.319 260.071 215.669 260.071 215.669" fill="white"/>
<path d="M259.881 204.089C259.881 204.089 258.191 194.879 261.081 195.399C263.971 195.919 265.791 205.569 264.701 211.159C263.611 216.749 261.091 221.999 259.071 220.159C257.051 218.319 260.071 215.669 260.071 215.669" stroke="#263238" stroke-linecap="round" stroke-linejoin="round"/>
<path d="M363 358.86C342.72 382.45 314.77 398.92 284 408.45C277.64 410.45 271.173 412.117 264.6 413.45C262.84 413.817 261.073 414.15 259.3 414.45C255.64 415.117 251.973 415.703 248.3 416.21C246.46 394.1 241.63 371.21 237.76 349.91C236.95 345.42 236.18 340.99 235.48 336.66C235.35 335.8 235.21 334.94 235.08 334.09C233.83 325.93 232.89 318.09 232.5 310.77C231.4 289.44 235.03 272.16 249.5 262.48C252.906 260.244 256.608 258.497 260.5 257.29C260.68 257.13 262.15 255.93 264.5 254.29C270.77 250.07 283.43 243.03 296.06 244.75C296.63 244.83 297.2 244.92 297.77 245.04C300.134 245.513 302.423 246.311 304.57 247.41C311.283 248.622 317.806 250.717 323.97 253.64C330.75 256.9 337.75 261.71 342.19 268.64C349.18 279.51 357.64 325.85 363 358.86Z" fill="#999999"/>
<mask id="mask2_2756_6950" style="mask-type:luminance" maskUnits="userSpaceOnUse" x="232" y="244" width="131" height="173">
<path d="M363 358.86C342.72 382.45 314.77 398.92 284 408.45C277.64 410.45 271.173 412.117 264.6 413.45C262.84 413.817 261.073 414.15 259.3 414.45C255.64 415.117 251.973 415.703 248.3 416.21C246.46 394.1 241.63 371.21 237.76 349.91C236.95 345.42 236.18 340.99 235.48 336.66C235.35 335.8 235.21 334.94 235.08 334.09C233.83 325.93 232.89 318.09 232.5 310.77C231.4 289.44 235.03 272.16 249.5 262.48C252.906 260.244 256.608 258.497 260.5 257.29C260.68 257.13 262.15 255.93 264.5 254.29C270.77 250.07 283.43 243.03 296.06 244.75C296.63 244.83 297.2 244.92 297.77 245.04C300.134 245.513 302.423 246.311 304.57 247.41C311.283 248.622 317.806 250.717 323.97 253.64C330.75 256.9 337.75 261.71 342.19 268.64C349.18 279.51 357.64 325.85 363 358.86Z" fill="white"/>
</mask>
<g mask="url(#mask2_2756_6950)">
<path opacity="0.3" d="M271.34 315.19C271.34 315.19 265.47 347.05 254.34 356.68C254.34 356.68 249.79 366.68 241.42 369.82C240.18 363.11 238.91 356.47 237.73 349.98C236.92 345.49 236.15 341.06 235.45 336.73C235.32 335.87 235.18 335.01 235.05 334.16C234.92 333.31 234.78 332.41 234.66 331.54L271.34 315.19Z" fill="black" fill-opacity="0.7"/>
<path opacity="0.3" d="M363 358.86C342.72 382.45 314.77 398.92 284 408.45C277.64 410.45 271.173 412.117 264.6 413.45C262.84 413.817 261.073 414.15 259.3 414.45C257.71 414.75 256.12 415.02 254.52 415.28C256.14 397.03 259.36 370.42 264.6 366.97C264.6 366.97 268.7 337.97 273.04 323.24C281.59 294.18 268.71 265.69 294.26 253.58C286.688 254.489 279.026 254.327 271.5 253.1C275.99 249.65 285.86 246.67 295.73 244.71L296.16 244.76C296.73 244.84 297.3 244.93 297.87 245.05C300.234 245.524 302.523 246.321 304.67 247.42C311.383 248.632 317.906 250.727 324.07 253.65C330.85 256.91 337.85 261.72 342.29 268.65C349.18 279.51 357.64 325.85 363 358.86Z" fill="black" fill-opacity="0.7"/>
</g>
<path d="M363 358.86C342.72 382.45 314.77 398.92 284 408.45C277.64 410.45 271.173 412.117 264.6 413.45C262.84 413.817 261.073 414.15 259.3 414.45C255.64 415.117 251.973 415.703 248.3 416.21C246.46 394.1 241.63 371.21 237.76 349.91C236.95 345.42 236.18 340.99 235.48 336.66C235.35 335.8 235.21 334.94 235.08 334.09C233.83 325.93 232.89 318.09 232.5 310.77C231.4 289.44 235.03 272.16 249.5 262.48C252.906 260.244 256.608 258.497 260.5 257.29C260.68 257.13 262.15 255.93 264.5 254.29C270.77 250.07 283.43 243.03 296.06 244.75C296.63 244.83 297.2 244.92 297.77 245.04C300.134 245.513 302.423 246.311 304.57 247.41C311.283 248.622 317.806 250.717 323.97 253.64C330.75 256.9 337.75 261.71 342.19 268.64C349.18 279.51 357.64 325.85 363 358.86Z" stroke="#263238" stroke-linecap="round" stroke-linejoin="round"/>
<path d="M249.282 262.26C225.062 268.01 217.762 297.73 206.072 306.61C198.891 312.137 192.764 318.912 187.982 326.61C187.982 326.61 177.582 328.35 177.582 332.13C177.582 335.91 174.122 356.59 194.952 362.48C215.782 368.37 221.842 359.84 221.842 359.84C221.842 359.84 257.342 338.77 263.842 330.03C268.585 323.892 271.614 316.605 272.619 308.913C273.624 301.221 272.569 293.4 269.562 286.25" fill="#999999"/>
<mask id="mask3_2756_6950" style="mask-type:luminance" maskUnits="userSpaceOnUse" x="177" y="262" width="96" height="103">
<path d="M249.282 262.26C225.062 268.01 217.762 297.73 206.072 306.61C198.891 312.137 192.764 318.912 187.982 326.61C187.982 326.61 177.582 328.35 177.582 332.13C177.582 335.91 174.122 356.59 194.952 362.48C215.782 368.37 221.842 359.84 221.842 359.84C221.842 359.84 257.342 338.77 263.842 330.03C268.585 323.892 271.614 316.605 272.619 308.913C273.624 301.221 272.569 293.4 269.562 286.25" fill="white"/>
</mask>
<g mask="url(#mask3_2756_6950)">
<path opacity="0.3" d="M215.312 354.77C182.982 359.7 181.162 338.71 182.182 328.2C184.066 327.514 186.007 326.992 187.982 326.64C187.982 326.64 188.302 326.08 188.982 325.12C185.492 342.07 215.312 354.77 215.312 354.77Z" fill="black" fill-opacity="0.7"/>
</g>
<path d="M249.282 262.26C225.062 268.01 217.762 297.73 206.072 306.61C198.891 312.137 192.764 318.912 187.982 326.61C187.982 326.61 177.582 328.35 177.582 332.13C177.582 335.91 174.122 356.59 194.952 362.48C215.782 368.37 221.842 359.84 221.842 359.84C221.842 359.84 257.342 338.77 263.842 330.03C268.585 323.892 271.614 316.605 272.619 308.913C273.624 301.221 272.569 293.4 269.562 286.25" stroke="#263238" stroke-linecap="round" stroke-linejoin="round"/>
<path d="M114.353 327.58C114.353 327.58 113.823 323.89 114.353 322.44C114.883 320.99 117.353 321.38 117.653 319.8C117.953 318.22 119.233 315.19 120.953 315.19C122.673 315.19 124.113 313.42 124.113 313.42" stroke="#263238" stroke-linecap="round" stroke-linejoin="round"/>
<path d="M105.723 328.999C105.723 328.999 111.373 324.999 112.773 324.119" stroke="#263238" stroke-linecap="round" stroke-linejoin="round"/>
<path d="M266 307.27C266 307.27 222.65 317.66 209.52 303.27" stroke="#263238" stroke-linecap="round" stroke-linejoin="round"/>
<path d="M188.002 326.64C188.002 326.64 184.132 339.64 194.002 347.64C203.872 355.64 216.552 354.79 216.552 354.79" stroke="#263238" stroke-linecap="round" stroke-linejoin="round"/>
<path d="M260.551 257.359C260.551 257.359 288.461 245.109 304.681 247.489" stroke="#263238" stroke-linecap="round" stroke-linejoin="round"/>
<path d="M277.472 315.189C277.472 315.189 269.752 334.479 253.242 339.369" stroke="#263238" stroke-linecap="round" stroke-linejoin="round"/>
<path d="M245.762 344.659C245.762 344.659 257.692 369.779 285.192 374.129" stroke="#263238" stroke-linecap="round" stroke-linejoin="round"/>
<path d="M264.601 413.47C264.171 408.54 263.601 402.47 262.901 396.65C261.841 387.65 260.571 379.19 259.271 376.52C256.111 369.99 256.761 359.41 256.761 359.41C252.271 353.41 253.241 341.6 253.241 341.6" stroke="#263238" stroke-linecap="round" stroke-linejoin="round"/>
<g opacity="0.4">
<path d="M280.094 191.999C282.114 192.709 284.201 193.208 286.324 193.489" stroke="white" stroke-linecap="round" stroke-linejoin="round"/>
<path d="M258.633 159.409C252.573 162.009 249.823 169.779 253.323 175.139C258.623 182.679 267.323 186.529 275.683 190.389" stroke="white" stroke-linecap="round" stroke-linejoin="round"/>
<path d="M249.433 161.779C240.593 165.949 237.903 174.469 244.573 182.129" stroke="white" stroke-linecap="round" stroke-linejoin="round"/>
<path d="M300.004 191.819C300.986 193.062 301.802 194.427 302.434 195.879" stroke="white" stroke-linecap="round" stroke-linejoin="round"/>
<path d="M278.623 163.189C274.773 176.099 291.103 181.929 297.963 189.359" stroke="white" stroke-linecap="round" stroke-linejoin="round"/>
</g>
<path d="M411.583 243C411.403 244.29 411.223 245.57 411.023 246.86C405.083 286 389.313 324.4 368.563 352C366.783 354.373 364.926 356.677 362.993 358.91C342.713 382.5 314.763 398.97 283.993 408.5C277.633 410.5 271.166 412.167 264.593 413.5C262.833 413.867 261.066 414.2 259.293 414.5C260.343 409.32 261.553 403.28 262.893 396.63C264.623 388.01 266.553 378.38 268.563 368.34C277.383 324.23 287.723 272.12 289.333 262.25C289.694 259.874 290.253 257.533 291.003 255.25C291.931 252.357 293.438 249.682 295.433 247.39C295.853 246.93 296.293 246.48 296.763 246.04C297.233 245.6 297.493 245.4 297.873 245.09C304.873 239.51 317.273 237.09 339.733 237.42C378.453 238.03 400.363 230.49 411.323 242.66C411.416 242.769 411.503 242.882 411.583 243Z" fill="#45474B"/>
<mask id="mask4_2756_6950" style="mask-type:luminance" maskUnits="userSpaceOnUse" x="259" y="235" width="153" height="180">
<path d="M411.583 243C411.403 244.29 411.223 245.57 411.023 246.86C405.083 286 389.313 324.4 368.563 352C366.783 354.373 364.926 356.677 362.993 358.91C342.713 382.5 314.763 398.97 283.993 408.5C277.633 410.5 271.166 412.167 264.593 413.5C262.833 413.867 261.066 414.2 259.293 414.5C260.343 409.32 261.553 403.28 262.893 396.63C264.623 388.01 266.553 378.38 268.563 368.34C277.383 324.23 287.723 272.12 289.333 262.25C289.694 259.874 290.253 257.533 291.003 255.25C291.931 252.357 293.438 249.682 295.433 247.39C295.853 246.93 296.293 246.48 296.763 246.04C297.233 245.6 297.493 245.4 297.873 245.09C304.873 239.51 317.273 237.09 339.733 237.42C378.453 238.03 400.363 230.49 411.323 242.66C411.416 242.769 411.503 242.882 411.583 243Z" fill="white"/>
</mask>
<g mask="url(#mask4_2756_6950)">
<path opacity="0.3" d="M411.002 246.87C405.082 286 389.312 324.4 368.562 352C366.782 354.373 364.926 356.677 362.992 358.91C342.712 382.5 314.762 398.97 283.992 408.5C291.822 374.94 312.362 286.57 314.912 271.16C316.582 261.16 319.552 256.16 324.072 253.77C328.152 251.59 333.482 251.46 340.232 251.49C350.632 251.48 386.862 245.82 411.002 246.87Z" fill="black" fill-opacity="0.7"/>
</g>
<path d="M411.583 243C411.403 244.29 411.223 245.57 411.023 246.86C405.083 286 389.313 324.4 368.563 352C366.783 354.373 364.926 356.677 362.993 358.91C342.713 382.5 314.763 398.97 283.993 408.5C277.633 410.5 271.166 412.167 264.593 413.5C262.833 413.867 261.066 414.2 259.293 414.5C260.343 409.32 261.553 403.28 262.893 396.63C264.623 388.01 266.553 378.38 268.563 368.34C277.383 324.23 287.723 272.12 289.333 262.25C289.694 259.874 290.253 257.533 291.003 255.25C291.931 252.357 293.438 249.682 295.433 247.39C295.853 246.93 296.293 246.48 296.763 246.04C297.233 245.6 297.493 245.4 297.873 245.09C304.873 239.51 317.273 237.09 339.733 237.42C378.453 238.03 400.363 230.49 411.323 242.66C411.416 242.769 411.503 242.882 411.583 243Z" stroke="#263238" stroke-linecap="round" stroke-linejoin="round"/>
<path d="M393.883 246.919C397.533 246.769 401.193 246.689 404.883 246.719" stroke="#263238" stroke-linecap="round" stroke-linejoin="round"/>
<path d="M387 247.3L390.42 247.09" stroke="#263238" stroke-linecap="round" stroke-linejoin="round"/>
<path d="M297.133 352C302.483 329.51 307.953 307 312.133 284.29C313.663 276.01 314.053 266.19 318.853 258.96C324.563 250.35 334.853 251.66 343.853 251.26C356.853 250.68 369.853 248.62 382.853 247.6" stroke="#263238" stroke-linecap="round" stroke-linejoin="round"/>
<path d="M295.09 360.67C295.45 359.11 295.81 357.56 296.18 356" stroke="#263238" stroke-linecap="round" stroke-linejoin="round"/>
<path d="M284 408.45C286.947 395.823 289.88 383.193 292.8 370.56" stroke="#263238" stroke-linecap="round" stroke-linejoin="round"/>
</svg>
